<svg width="20" height="22" viewBox="0 0 20 22" fill="none"
    xmlns="http://www.w3.org/2000/svg">
    <path fill-rule="evenodd" clip-rule="evenodd" d="M18.8066 6.62358L18.1842 5.54349C17.6576 4.62957 16.4907 4.31429 15.5755 4.83869C15.1399 5.09531 14.6201 5.16812 14.1307 5.04106C13.6413 4.91399 13.2226 4.59749 12.9668 4.16134C12.8023 3.88412 12.7139 3.56836 12.7105 3.24601C12.7254 2.72919 12.5304 2.22837 12.17 1.85764C11.8096 1.48691 11.3145 1.27783 10.7975 1.27805H9.54348C9.03694 1.27805 8.55129 1.47988 8.19398 1.83891C7.83666 2.19795 7.63715 2.68456 7.63959 3.19109C7.62457 4.23689 6.77246 5.07678 5.72654 5.07667C5.40419 5.07333 5.08843 4.98491 4.81121 4.82038C3.89604 4.29598 2.72909 4.61126 2.20252 5.52519L1.53432 6.62358C1.00839 7.53636 1.31938 8.70258 2.22998 9.23228C2.82188 9.57401 3.18651 10.2056 3.18651 10.889C3.18651 11.5725 2.82188 12.2041 2.22998 12.5458C1.32053 13.0719 1.0092 14.2353 1.53432 15.1453L2.1659 16.2346C2.41262 16.6798 2.82658 17.0083 3.31617 17.1474C3.80576 17.2866 4.33062 17.2249 4.7746 16.976C5.21106 16.7213 5.73117 16.6515 6.21932 16.7822C6.70747 16.9128 7.12321 17.233 7.37414 17.6716C7.53867 17.9489 7.62709 18.2646 7.63043 18.587C7.63043 19.6435 8.48693 20.5 9.54348 20.5H10.7975C11.8505 20.5 12.7055 19.6491 12.7105 18.5961C12.7081 18.088 12.9088 17.6 13.2681 17.2407C13.6274 16.8814 14.1155 16.6806 14.6236 16.6831C14.9451 16.6917 15.2596 16.7797 15.5389 16.9394C16.4517 17.4653 17.6179 17.1543 18.1476 16.2437L18.8066 15.1453C19.0617 14.7075 19.1317 14.186 19.0012 13.6963C18.8706 13.2067 18.5502 12.7893 18.111 12.5366C17.6717 12.2839 17.3514 11.8665 17.2208 11.3769C17.0902 10.8873 17.1602 10.3658 17.4153 9.92793C17.5812 9.63831 17.8214 9.39817 18.111 9.23228C19.0161 8.70286 19.3264 7.54346 18.8066 6.63274V6.62358Z" stroke="black" stroke-width="1.5" stroke-linecap="round" stroke-linejoin="round"/>
    <path d="M10.1751 13.5252C11.631 13.5252 12.8112 12.3449 12.8112 10.889C12.8112 9.43312 11.631 8.25287 10.1751 8.25287C8.71915 8.25287 7.5389 9.43312 7.5389 10.889C7.5389 12.3449 8.71915 13.5252 10.1751 13.5252Z" stroke="black" stroke-width="1.5" stroke-linecap="round" stroke-linejoin="round"/>
</svg>
