<svg width="208" height="39" viewBox="0 0 208 39" fill="none"
    xmlns="http://www.w3.org/2000/svg">
    <path d="M33.2927 11.2481C33.2927 6.16585 28.7236 2.18247 23.4664 3.14397C20.0809 3.77582 17.3285 6.63286 16.8605 10.0668C16.8055 10.5064 16.778 10.9459 16.778 11.3854C16.778 12.814 15.7595 14.0502 14.3283 14.0227C14.3007 14.0227 14.2732 14.0227 14.2182 14.0227C9.31879 13.9403 4.72218 17.1545 3.42852 21.8796C1.3917 29.2969 6.89662 36 13.998 36C16.1174 36 18.2092 35.3682 19.9983 34.2143C20.9067 33.6374 21.7049 32.9507 22.393 32.1265C23.6041 30.698 24.4849 29.0772 25.6134 27.5937C27.4575 25.1762 29.3842 22.951 32.0266 21.4675C34.1185 20.2862 36.8434 19.3797 39.2931 19.517C41.2749 19.6269 43.1741 20.506 44.5778 21.9071C46.0642 23.3905 47 25.4509 47 27.731C47 30.0112 46.0642 32.0716 44.5778 33.555C43.0915 35.0385 41.0272 35.9725 38.7426 35.9725C36.4581 35.9725 34.3937 35.0385 32.9074 33.555" fill="url(#paint0_linear_0_1)"/>
    <path d="M33.2927 11.2481C33.2927 6.16585 28.7237 2.18247 23.4664 3.14397C20.0809 3.77582 17.3285 6.63286 16.8605 10.0668C16.8055 10.5064 16.778 10.9459 16.778 11.3854C16.778 12.814 15.7595 14.0502 14.3283 14.0227C14.3007 14.0227 14.2732 14.0227 14.2182 14.0227C9.31879 13.9403 4.72218 17.1545 3.42852 21.8796C1.3917 29.2969 6.89662 36 13.998 36C16.1174 36 18.2092 35.3682 19.9983 34.2143C20.9067 33.6374 21.7049 32.9507 22.393 32.1265C23.6041 30.698 24.4849 29.0772 25.6134 27.5937C27.4575 25.1762 29.3842 22.951 32.0266 21.4675C34.1185 20.2862 36.8434 19.3797 39.2931 19.517C41.2749 19.6269 43.1741 20.506 44.5778 21.9071C46.0642 23.3905 47 25.4509 47 27.731C47 30.0112 46.0642 32.0716 44.5778 33.555C43.0915 35.0385 41.0272 35.9725 38.7426 35.9725C36.4581 35.9725 34.3937 35.0385 32.9074 33.555" stroke="url(#paint1_linear_0_1)" stroke-width="4.92" stroke-linecap="round" stroke-linejoin="round"/>
    <path d="M62.4023 27L58.5332 13.875H61.3906L64.2754 24.3477L67.3379 14.0117H70.209L73.2715 24.3477L76.1562 13.875H79.0137L75.1445 27H71.4531L68.7734 17.6621L66.0938 27H62.4023ZM80.5586 20.4512C80.5586 16.541 83.3613 13.6016 87.3398 13.6016C91.168 13.6016 93.6562 16.4453 93.6562 19.959C93.6562 20.3691 93.6289 20.793 93.5469 21.2168H83.3613C83.4844 23.1855 85.166 24.7305 87.4355 24.7305C89.0762 24.7305 90.3887 24.0332 91.373 22.4883L93.3691 23.9375C92.1523 26.125 89.7598 27.2734 87.4355 27.2734C83.4707 27.2734 80.5586 24.3477 80.5586 20.4512ZM83.4297 19.1934H90.9082C90.7441 17.3477 89.1992 16.0488 87.3125 16.0488C85.3027 16.0488 83.7715 17.3477 83.4297 19.1934ZM96.0078 23.2676C96.0078 20.8066 98.3594 19.1113 101.805 19.1113C103.377 19.1113 104.512 19.4395 105.113 19.7266V19.0156C105.113 17.375 103.787 16.1445 101.75 16.1445C100.123 16.1445 98.7695 17.0742 97.9902 17.9629L96.2812 16.2676C97.293 14.9824 99.3984 13.6016 101.791 13.6016C105.482 13.6016 107.82 15.5977 107.82 18.7832V27H105.168V25.3047C104.361 26.5352 102.844 27.2734 101.08 27.2734C98.2363 27.2734 96.0078 25.8379 96.0078 23.2676ZM98.7422 23.1719C98.7422 24.3613 99.9316 25.0586 101.477 25.0586C103.609 25.0586 105.113 23.5957 105.113 21.8047C104.553 21.5176 103.295 21.1758 101.873 21.1758C100.164 21.1758 98.7422 21.75 98.7422 23.1719ZM112.441 16.1719H110.104V13.875H112.482V9.66406H115.121V13.875H119.291V16.1719H115.148V22.7344C115.148 24.1289 115.955 24.8262 117.295 24.8262C117.924 24.8262 118.785 24.6484 119.428 24.375L119.783 26.6992C119.127 27.041 117.965 27.2734 116.912 27.2734C114.164 27.2734 112.441 25.7285 112.441 23.0625V16.1719ZM125.047 27H122.34V7.75H125.061V15.5293C125.498 14.8594 126.742 13.6016 129.094 13.6016C132.635 13.6016 134.535 15.8438 134.535 19.0293V27H131.828V19.6035C131.828 17.4297 130.639 16.1719 128.67 16.1719C126.674 16.1719 125.047 17.4297 125.047 19.6035V27ZM137.57 20.4512C137.57 16.541 140.373 13.6016 144.352 13.6016C148.18 13.6016 150.668 16.4453 150.668 19.959C150.668 20.3691 150.641 20.793 150.559 21.2168H140.373C140.496 23.1855 142.178 24.7305 144.447 24.7305C146.088 24.7305 147.4 24.0332 148.385 22.4883L150.381 23.9375C149.164 26.125 146.771 27.2734 144.447 27.2734C140.482 27.2734 137.57 24.3477 137.57 20.4512ZM140.441 19.1934H147.92C147.756 17.3477 146.211 16.0488 144.324 16.0488C142.314 16.0488 140.783 17.3477 140.441 19.1934ZM156.615 27H153.895V13.875H156.615V15.666C157.354 14.2305 158.598 13.6016 160.033 13.6016C161.059 13.6016 161.838 13.9297 161.838 13.9297L161.551 16.418C161.4 16.3633 160.812 16.1172 159.951 16.1172C158.502 16.1172 156.615 16.8828 156.615 19.8496V27ZM163.861 26.0703C163.861 25.4688 164.285 25.0449 164.887 25.0449C165.488 25.0449 165.926 25.4688 165.926 26.0703C165.926 26.6719 165.488 27.0957 164.887 27.0957C164.285 27.0957 163.861 26.6719 163.861 26.0703ZM169.74 27V13.875H171.381V16.1309C172.393 14.3672 174.211 13.6016 176.002 13.6016C178.408 13.6016 180.172 14.75 180.938 16.6777C181.908 14.5312 183.836 13.6016 185.846 13.6016C189.168 13.6016 191.383 15.666 191.383 18.9199V27H189.742V19.4121C189.742 16.7461 188.211 15.1191 185.572 15.1191C183.221 15.1191 181.348 16.9102 181.348 19.4941V27H179.721V19.4121C179.721 16.7461 178.203 15.1191 175.729 15.1191C173.281 15.1191 171.381 16.9102 171.381 19.4941V27H169.74ZM194.842 20.4375C194.842 16.5273 197.754 13.6016 201.596 13.6016C205.574 13.6016 207.939 16.3633 207.953 19.7129C207.953 20.082 207.926 20.4648 207.871 20.8477H196.523C196.729 23.8008 199.025 25.7695 201.773 25.7695C203.633 25.7695 205.301 24.9082 206.381 23.4863L207.598 24.375C206.299 26.3164 204.029 27.2734 201.746 27.2734C197.727 27.2734 194.842 24.252 194.842 20.4375ZM201.596 15.1055C198.943 15.1055 196.811 16.8555 196.619 19.4531H206.34C206.217 16.8691 204.139 15.1055 201.596 15.1055Z" fill="black"/>
    <defs>
        <linearGradient id="paint0_linear_0_1" x1="-3.39953" y1="-4.1078" x2="31.6861" y2="17.4032" gradientUnits="userSpaceOnUse">
            <stop stop-color="white"/>
            <stop offset="1" stop-color="white" stop-opacity="0"/>
        </linearGradient>
        <linearGradient id="paint1_linear_0_1" x1="12.7834" y1="7.86591" x2="36.9164" y2="44.4413" gradientUnits="userSpaceOnUse">
            <stop stop-color="white"/>
            <stop offset="1" stop-color="white" stop-opacity="0"/>
        </linearGradient>
    </defs>
</svg>
