<svg width="14" height="20" viewBox="0 0 14 20" fill="none"
    xmlns="http://www.w3.org/2000/svg">
    <path d="M7 0.499989C3.13 0.499989 0 3.62999 0 7.49999C0 11.67 4.42 17.42 6.24 19.61C6.64 20.09 7.37 20.09 7.77 19.61C9.58 17.42 14 11.67 14 7.49999C14 3.62999 10.87 0.499989 7 0.499989ZM7 9.99999C6.33696 9.99999 5.70107 9.7366 5.23223 9.26776C4.76339 8.79891 4.5 8.16303 4.5 7.49999C4.5 6.83695 4.76339 6.20106 5.23223 5.73222C5.70107 5.26338 6.33696 4.99999 7 4.99999C7.66304 4.99999 8.29892 5.26338 8.76777 5.73222C9.23661 6.20106 9.5 6.83695 9.5 7.49999C9.5 8.16303 9.23661 8.79891 8.76777 9.26776C8.29892 9.7366 7.66304 9.99999 7 9.99999Z" fill="#363B64"/>
</svg>
